<?xml version="1.0" encoding="UTF-8" ?>
<!DOCTYPE svg PUBLIC "-//W3C//DTD SVG 1.1//EN" "http://www.w3.org/Graphics/SVG/1.1/DTD/svg11.dtd">
<svg width="2000pt" height="560pt" viewBox="0 0 2000 560" version="1.1" xmlns="http://www.w3.org/2000/svg">
<g id="#44251fff">
<path fill="#44251f" opacity="1.00" d=" M 0.00 0.00 L 2000.00 0.00 L 2000.00 560.00 L 0.00 560.00 L 0.00 0.00 M 874.39 98.33 C 862.51 105.97 855.52 120.02 855.51 134.04 C 855.22 145.02 859.70 155.30 864.41 164.97 C 850.84 173.41 837.19 182.66 827.82 195.87 C 820.14 206.48 816.30 219.85 817.56 232.92 C 818.74 246.61 826.08 259.51 836.98 267.81 C 850.13 278.09 867.69 281.30 883.98 279.03 C 897.82 277.31 910.73 270.71 920.92 261.30 C 927.01 268.98 934.56 276.28 944.29 278.86 C 958.46 282.34 974.24 274.44 980.65 261.47 C 984.66 253.52 983.87 244.16 982.40 235.67 C 980.33 235.66 978.26 235.66 976.22 235.65 C 977.39 240.92 978.66 246.61 976.90 251.90 C 975.56 256.07 971.41 258.90 967.10 259.04 C 963.04 259.50 959.66 256.70 957.12 253.89 C 952.30 248.47 948.89 242.02 945.38 235.73 C 949.32 228.53 952.90 221.00 954.44 212.88 C 957.06 199.44 955.00 185.67 956.66 172.15 C 957.21 168.08 958.44 163.44 962.31 161.30 C 967.57 158.53 973.75 159.10 979.50 158.83 C 979.49 156.89 979.49 154.94 979.50 153.00 C 961.58 153.00 943.67 153.00 925.75 153.00 C 925.74 154.94 925.73 156.87 925.74 158.81 C 931.44 159.10 937.61 158.33 942.83 161.14 C 947.35 163.80 948.65 169.36 949.37 174.18 C 950.50 183.44 950.27 192.83 949.58 202.13 C 948.73 211.74 946.77 221.52 941.71 229.87 C 926.79 204.31 911.96 178.70 897.07 153.12 C 903.05 149.75 909.19 146.13 913.29 140.46 C 918.84 132.92 920.11 123.03 918.98 113.94 C 918.09 106.52 913.77 99.40 907.03 95.95 C 896.81 90.57 883.86 91.99 874.39 98.33 M 1051.25 123.50 C 1051.24 124.36 1051.24 125.22 1051.25 126.08 C 1057.75 126.09 1064.25 126.08 1070.75 126.09 C 1070.75 166.61 1070.75 207.14 1070.75 247.67 C 1064.25 247.66 1057.75 247.67 1051.25 247.67 C 1051.25 248.31 1051.25 249.60 1051.25 250.25 C 1070.14 250.25 1089.03 250.25 1107.92 250.25 C 1107.92 249.60 1107.92 248.31 1107.92 247.67 C 1101.41 247.66 1094.91 247.67 1088.42 247.66 C 1088.41 228.15 1088.43 208.64 1088.41 189.13 C 1099.45 191.20 1110.95 190.92 1121.78 187.78 C 1131.83 184.92 1141.83 179.34 1147.12 169.98 C 1153.28 159.19 1150.73 144.62 1141.78 136.14 C 1130.84 125.47 1114.71 122.47 1099.95 123.06 C 1083.72 123.77 1067.48 123.42 1051.25 123.50 M 69.33 123.50 C 69.33 124.15 69.34 125.44 69.34 126.08 C 75.84 126.09 82.34 126.08 88.84 126.09 C 88.83 166.61 88.84 207.14 88.83 247.67 C 82.33 247.66 75.83 247.66 69.33 247.67 C 69.34 248.31 69.34 249.60 69.34 250.25 C 83.22 250.25 97.11 250.25 111.00 250.25 C 111.00 249.60 111.00 248.31 111.00 247.67 C 104.50 247.66 98.00 247.67 91.50 247.66 C 91.54 207.76 91.43 167.85 91.55 127.94 C 105.69 168.46 119.30 209.16 133.45 249.68 L 132.54 250.34 C 133.04 250.37 133.55 250.41 134.06 250.41 C 134.34 248.99 134.69 247.60 135.12 246.23 C 148.77 206.38 162.26 166.48 175.94 126.64 C 176.08 166.98 175.96 207.33 176.00 247.67 C 169.50 247.66 163.00 247.67 156.50 247.67 C 156.50 248.52 156.50 249.39 156.50 250.25 C 175.39 250.25 194.28 250.25 213.16 250.25 C 213.16 249.60 213.16 248.31 213.16 247.67 C 206.66 247.66 200.16 247.67 193.66 247.66 C 193.67 207.14 193.66 166.61 193.67 126.09 C 200.16 126.08 206.66 126.09 213.16 126.08 C 213.16 125.44 213.17 124.15 213.17 123.50 C 200.19 123.50 187.21 123.50 174.24 123.50 C 163.33 155.50 152.52 187.54 141.57 219.53 C 130.66 187.53 119.80 155.51 108.93 123.50 C 95.73 123.50 82.53 123.50 69.33 123.50 M 245.24 247.66 C 242.02 247.67 238.80 247.67 235.58 247.67 C 235.58 248.31 235.59 249.60 235.59 250.25 C 243.75 250.25 251.92 250.25 260.08 250.25 C 260.08 249.60 260.08 248.31 260.08 247.67 C 255.99 247.66 251.90 247.67 247.81 247.66 C 252.01 237.97 256.23 228.29 260.42 218.59 C 268.88 218.58 277.35 218.58 285.81 218.59 C 290.19 228.28 294.58 237.97 298.94 247.66 C 294.79 247.67 290.65 247.66 286.50 247.67 C 286.50 248.52 286.50 249.39 286.50 250.25 C 299.78 250.25 313.06 250.25 326.33 250.25 C 326.33 249.60 326.33 248.31 326.33 247.67 C 322.93 247.66 319.53 247.66 316.13 247.67 C 304.46 222.31 292.82 196.94 281.16 171.58 C 280.31 171.58 278.59 171.58 277.74 171.58 C 266.89 196.93 256.06 222.29 245.24 247.66 M 453.34 247.66 C 450.11 247.67 446.89 247.67 443.67 247.67 C 443.67 248.31 443.67 249.60 443.67 250.25 C 451.83 250.25 460.00 250.25 468.16 250.25 C 468.16 249.60 468.16 248.31 468.16 247.67 C 464.08 247.66 460.00 247.66 455.92 247.67 C 460.11 237.97 464.32 228.27 468.54 218.58 C 476.99 218.59 485.44 218.59 493.89 218.58 C 498.29 228.27 502.67 237.97 507.04 247.67 C 502.89 247.66 498.73 247.66 494.59 247.67 C 494.58 248.31 494.58 249.60 494.58 250.25 C 507.86 250.25 521.14 250.25 534.42 250.25 C 534.42 249.60 534.42 248.31 534.42 247.67 C 531.02 247.66 527.62 247.66 524.23 247.67 C 512.56 222.31 500.92 196.95 489.26 171.58 C 488.40 171.58 486.69 171.58 485.83 171.58 C 475.00 196.94 464.15 222.29 453.34 247.66 M 706.75 171.58 C 695.92 196.94 685.07 222.30 674.25 247.66 C 671.03 247.66 667.80 247.67 664.58 247.67 C 664.58 248.31 664.58 249.60 664.58 250.25 C 672.75 250.25 680.92 250.25 689.08 250.25 C 689.08 249.60 689.08 248.31 689.08 247.67 C 685.00 247.66 680.91 247.66 676.84 247.67 C 681.03 237.97 685.23 228.27 689.45 218.58 C 697.91 218.59 706.37 218.58 714.82 218.59 C 719.20 228.28 723.59 237.97 727.96 247.66 C 723.81 247.67 719.65 247.66 715.50 247.67 C 715.50 248.31 715.50 249.60 715.50 250.25 C 728.78 250.25 742.05 250.25 755.33 250.25 C 755.33 249.60 755.33 248.31 755.33 247.67 C 751.93 247.66 748.54 247.66 745.15 247.67 C 733.48 222.32 721.85 196.94 710.18 171.58 C 709.32 171.58 707.60 171.58 706.75 171.58 M 1227.04 171.59 C 1216.20 196.95 1205.36 222.30 1194.54 247.66 C 1191.30 247.66 1188.06 247.66 1184.84 247.67 C 1184.84 248.31 1184.84 249.60 1184.84 250.25 C 1193.00 250.25 1201.16 250.25 1209.33 250.25 C 1209.33 249.60 1209.33 248.31 1209.33 247.67 C 1205.26 247.66 1201.19 247.66 1197.12 247.66 C 1201.32 237.97 1205.52 228.27 1209.74 218.58 C 1218.19 218.58 1226.64 218.58 1235.10 218.58 C 1239.49 228.27 1243.87 237.97 1248.25 247.67 C 1244.10 247.66 1239.97 247.66 1235.84 247.67 C 1235.84 248.31 1235.84 249.60 1235.84 250.25 C 1249.11 250.25 1262.39 250.25 1275.66 250.25 C 1275.66 249.60 1275.66 248.31 1275.66 247.67 C 1272.24 247.66 1268.82 247.67 1265.41 247.66 C 1253.76 222.29 1242.12 196.92 1230.44 171.57 C 1229.59 171.57 1227.89 171.58 1227.04 171.59 M 1306.84 173.84 C 1306.84 174.48 1306.83 175.77 1306.83 176.42 C 1311.16 176.42 1315.49 176.42 1319.83 176.41 C 1319.84 200.17 1319.83 223.92 1319.83 247.67 C 1315.49 247.66 1311.16 247.66 1306.84 247.67 C 1306.84 248.31 1306.84 249.60 1306.84 250.25 C 1320.47 250.25 1334.11 250.25 1347.75 250.25 C 1347.75 249.60 1347.75 248.31 1347.75 247.67 C 1343.52 247.67 1339.30 247.66 1335.09 247.67 C 1335.08 235.25 1335.08 222.83 1335.09 210.41 C 1340.01 210.52 1344.96 210.15 1349.88 210.65 C 1353.98 211.09 1357.62 213.97 1358.97 217.88 C 1362.15 226.46 1360.29 236.17 1364.26 244.54 C 1366.19 248.78 1370.48 251.55 1375.03 252.19 C 1380.91 253.12 1388.06 252.95 1391.97 247.70 C 1391.23 247.17 1390.51 246.64 1389.80 246.12 C 1387.76 248.45 1384.42 250.77 1381.36 248.76 C 1378.38 246.30 1378.37 242.00 1377.76 238.49 C 1376.74 231.62 1377.63 223.80 1373.06 218.01 C 1368.30 212.31 1360.41 211.44 1353.64 209.84 C 1358.94 208.52 1364.59 207.54 1369.07 204.20 C 1376.59 198.78 1376.72 186.17 1369.57 180.38 C 1363.05 174.99 1354.24 173.67 1346.05 173.36 C 1332.98 173.31 1319.91 174.06 1306.84 173.84 M 1767.25 173.83 C 1767.25 174.48 1767.25 175.77 1767.25 176.42 C 1771.57 176.42 1775.91 176.41 1780.25 176.42 C 1780.25 200.17 1780.25 223.91 1780.25 247.66 C 1775.91 247.67 1771.57 247.66 1767.25 247.67 C 1767.25 248.31 1767.25 249.60 1767.25 250.25 C 1780.89 250.25 1794.52 250.25 1808.16 250.25 C 1808.16 249.60 1808.16 248.31 1808.16 247.67 C 1803.93 247.66 1799.71 247.67 1795.50 247.66 C 1795.50 235.25 1795.50 222.83 1795.50 210.42 C 1800.52 210.53 1805.58 210.12 1810.59 210.69 C 1814.56 211.20 1818.03 214.03 1819.37 217.81 C 1822.84 226.97 1820.35 237.70 1825.69 246.26 C 1829.77 252.52 1838.26 253.26 1845.03 252.20 C 1848.15 251.88 1850.57 249.76 1852.50 247.44 C 1850.79 245.82 1849.35 246.63 1848.03 248.06 C 1845.81 250.36 1841.45 249.87 1840.16 246.85 C 1836.36 238.16 1839.26 227.80 1834.49 219.44 C 1830.14 212.54 1821.32 211.51 1814.05 209.85 C 1819.51 208.47 1825.40 207.48 1829.94 203.86 C 1837.10 198.22 1836.96 185.84 1829.81 180.22 C 1823.17 174.89 1814.29 173.61 1806.02 173.35 C 1793.09 173.34 1780.18 174.05 1767.25 173.83 M 349.67 173.84 C 349.69 181.38 349.62 188.92 349.70 196.46 C 350.16 196.31 351.08 196.02 351.54 195.87 C 353.10 190.27 354.78 184.20 359.54 180.42 C 364.48 176.23 371.31 176.30 377.42 176.41 C 377.42 200.16 377.41 223.91 377.42 247.66 C 373.14 247.67 368.86 247.66 364.58 247.67 C 364.58 248.31 364.58 249.60 364.58 250.25 C 378.19 250.25 391.80 250.25 405.42 250.25 C 405.42 249.60 405.42 248.31 405.42 247.67 C 401.14 247.66 396.86 247.67 392.58 247.66 C 392.59 223.91 392.58 200.16 392.58 176.41 C 398.70 176.30 405.52 176.23 410.47 180.42 C 415.24 184.21 416.87 190.30 418.50 195.89 C 418.95 196.03 419.85 196.31 420.30 196.45 C 420.37 188.92 420.32 181.38 420.33 173.84 C 396.78 173.83 373.22 173.83 349.67 173.84 M 558.25 173.84 C 558.25 174.48 558.25 175.77 558.25 176.42 C 562.36 176.41 566.47 176.42 570.58 176.42 C 570.59 200.17 570.58 223.92 570.58 247.67 C 566.47 247.66 562.36 247.67 558.25 247.67 C 558.25 248.31 558.25 249.60 558.25 250.25 C 567.19 250.25 576.14 250.25 585.08 250.25 C 585.08 249.60 585.08 248.31 585.08 247.67 C 581.08 247.66 577.08 247.66 573.09 247.67 C 573.09 225.79 573.06 203.92 573.11 182.04 C 590.29 204.14 607.40 226.31 624.51 248.47 C 625.33 249.95 626.85 250.40 628.47 250.48 C 628.53 225.79 628.48 201.11 628.50 176.42 C 632.58 176.41 636.66 176.41 640.75 176.42 C 640.75 175.77 640.75 174.48 640.75 173.83 C 631.83 173.83 622.92 173.83 614.00 173.84 C 614.00 174.48 614.00 175.77 614.00 176.42 C 617.97 176.42 621.94 176.42 625.91 176.41 C 625.91 193.08 625.93 209.75 625.90 226.43 C 612.45 208.94 599.13 191.35 585.73 173.83 C 576.57 173.84 567.41 173.83 558.25 173.84 M 1423.50 173.84 C 1423.51 181.36 1423.45 188.89 1423.54 196.42 L 1425.35 195.96 C 1427.02 190.36 1428.61 184.18 1433.44 180.39 C 1438.38 176.25 1445.16 176.29 1451.25 176.41 C 1451.25 200.16 1451.25 223.91 1451.25 247.66 C 1446.97 247.67 1442.69 247.66 1438.42 247.67 C 1438.42 248.31 1438.42 249.60 1438.42 250.25 C 1452.05 250.25 1465.69 250.25 1479.33 250.25 C 1479.33 249.60 1479.33 248.31 1479.33 247.67 C 1475.05 247.66 1470.77 247.67 1466.50 247.66 C 1466.51 223.91 1466.49 200.16 1466.50 176.40 C 1472.44 176.32 1479.00 176.22 1483.93 180.09 C 1488.97 183.83 1490.73 190.13 1492.37 195.88 C 1492.83 196.02 1493.76 196.31 1494.22 196.45 C 1494.28 188.91 1494.23 181.37 1494.25 173.84 C 1470.66 173.83 1447.08 173.83 1423.50 173.84 M 1531.92 173.84 C 1531.92 174.48 1531.92 175.77 1531.92 176.42 C 1536.02 176.41 1540.13 176.41 1544.25 176.42 C 1544.24 200.17 1544.25 223.92 1544.25 247.67 C 1540.13 247.66 1536.02 247.67 1531.92 247.67 C 1531.92 248.31 1531.92 249.60 1531.92 250.25 C 1540.86 250.25 1549.80 250.25 1558.75 250.25 C 1558.75 249.60 1558.75 248.31 1558.75 247.67 C 1554.74 247.67 1550.74 247.67 1546.75 247.66 C 1546.78 225.78 1546.69 203.91 1546.79 182.03 C 1563.29 203.27 1579.72 224.55 1596.16 245.83 C 1597.80 247.79 1599.08 250.75 1602.15 250.47 C 1602.19 225.78 1602.15 201.10 1602.17 176.41 C 1606.27 176.42 1610.38 176.42 1614.50 176.42 C 1614.48 175.55 1614.48 174.69 1614.50 173.83 C 1605.55 173.84 1596.61 173.83 1587.67 173.84 C 1587.67 174.48 1587.67 175.77 1587.67 176.41 C 1591.63 176.42 1595.60 176.42 1599.58 176.42 C 1599.57 193.08 1599.60 209.74 1599.57 226.40 C 1586.11 208.93 1572.81 191.32 1559.39 173.82 C 1550.23 173.85 1541.07 173.83 1531.92 173.84 M 1652.67 173.84 C 1652.67 174.48 1652.67 175.77 1652.67 176.41 C 1656.94 176.42 1661.21 176.41 1665.50 176.42 C 1665.50 200.17 1665.49 223.91 1665.50 247.66 C 1661.22 247.67 1656.94 247.66 1652.67 247.67 C 1652.67 248.31 1652.67 249.60 1652.67 250.25 C 1677.30 250.25 1701.94 250.25 1726.58 250.25 C 1726.55 241.59 1726.65 232.94 1726.52 224.28 L 1724.70 224.86 C 1722.88 232.19 1720.07 240.17 1713.11 244.15 C 1703.25 249.80 1691.44 246.98 1680.66 247.66 C 1680.67 235.25 1680.66 222.84 1680.66 210.43 C 1686.66 210.62 1693.46 209.38 1698.63 213.20 C 1702.54 216.12 1703.20 221.22 1704.16 225.65 C 1704.60 225.81 1705.48 226.11 1705.92 226.27 C 1706.09 214.79 1705.95 203.31 1706.00 191.83 C 1705.53 191.83 1704.60 191.83 1704.13 191.83 C 1703.64 196.94 1701.99 202.46 1697.48 205.43 C 1692.56 208.86 1686.27 207.62 1680.67 207.83 C 1680.66 197.36 1680.66 186.89 1680.67 176.42 C 1688.14 176.43 1695.61 176.38 1703.09 176.43 C 1706.43 176.40 1709.86 177.35 1712.41 179.62 C 1716.19 182.87 1717.96 187.69 1719.66 192.24 C 1720.16 192.25 1721.16 192.26 1721.66 192.26 C 1721.67 186.12 1721.66 179.98 1721.67 173.84 C 1698.66 173.83 1675.67 173.83 1652.67 173.84 M 1885.84 173.84 C 1885.84 174.48 1885.83 175.77 1885.83 176.42 C 1890.05 176.42 1894.27 176.41 1898.50 176.42 C 1898.50 200.17 1898.49 223.91 1898.50 247.66 C 1894.27 247.67 1890.05 247.66 1885.84 247.67 C 1885.84 248.31 1885.84 249.60 1885.84 250.25 C 1899.33 250.25 1912.83 250.25 1926.33 250.25 C 1926.33 249.60 1926.33 248.31 1926.33 247.67 C 1922.13 247.67 1917.93 247.67 1913.75 247.65 C 1913.75 223.91 1913.75 200.16 1913.75 176.42 C 1917.94 176.41 1922.13 176.42 1926.33 176.41 C 1926.33 175.77 1926.33 174.48 1926.33 173.84 C 1912.83 173.83 1899.33 173.83 1885.84 173.84 M 895.56 406.10 C 898.74 410.73 902.26 415.11 905.58 419.65 C 906.67 419.65 907.78 419.67 908.91 419.69 C 912.26 415.24 915.61 410.79 918.93 406.31 C 918.30 406.32 917.03 406.34 916.39 406.35 C 913.33 408.78 910.27 411.21 907.22 413.66 C 903.31 411.21 900.46 406.48 895.56 406.10 M 1589.32 406.15 C 1592.57 410.73 1596.03 415.15 1599.37 419.66 C 1600.48 419.66 1601.61 419.67 1602.76 419.68 C 1606.07 415.23 1609.40 410.79 1612.73 406.35 C 1612.13 406.34 1610.92 406.31 1610.32 406.30 C 1607.20 408.74 1604.12 411.22 1601.02 413.68 C 1597.13 411.22 1594.21 406.50 1589.32 406.15 M 107.36 424.54 C 96.98 427.66 88.73 437.28 87.54 448.11 C 85.32 463.26 98.46 479.21 114.00 478.86 C 128.85 479.00 141.64 464.59 140.66 449.95 C 140.43 440.60 134.52 432.17 126.85 427.19 C 121.15 423.48 113.85 422.67 107.36 424.54 M 885.52 439.60 C 881.87 448.63 882.41 459.65 888.09 467.74 C 892.45 473.84 899.27 478.89 907.05 478.86 C 912.32 479.08 917.20 476.65 921.43 473.73 C 922.85 475.37 923.74 477.77 926.04 478.37 C 926.33 472.74 926.60 467.11 926.74 461.47 L 924.88 462.00 C 923.00 465.86 921.53 470.18 918.02 472.95 C 913.15 477.34 905.14 478.24 899.88 474.05 C 896.38 471.16 895.72 466.32 895.37 462.07 C 894.85 453.90 894.69 445.65 895.84 437.53 C 896.43 433.43 897.93 428.84 901.96 426.93 C 907.87 424.24 915.83 425.78 919.68 431.22 C 921.61 433.71 922.27 436.84 923.45 439.70 C 923.87 439.83 924.72 440.08 925.14 440.20 C 925.18 434.82 925.15 429.45 925.16 424.07 C 922.62 423.81 922.13 426.83 920.85 428.35 C 916.92 425.31 912.10 423.29 907.07 423.57 C 897.39 423.71 889.21 431.05 885.52 439.60 M 1108.35 424.58 C 1097.08 428.02 1088.48 439.13 1088.48 451.01 C 1088.07 459.76 1092.93 467.95 1099.50 473.40 C 1106.82 479.54 1117.85 480.58 1126.31 476.21 C 1135.73 471.21 1142.53 460.86 1141.82 450.00 C 1141.55 440.60 1135.65 432.10 1127.91 427.13 C 1122.17 423.43 1114.84 422.68 1108.35 424.58 M 1586.78 428.85 C 1581.41 434.20 1581.29 443.82 1587.07 448.92 C 1593.69 455.29 1604.06 452.73 1611.43 457.58 C 1615.72 460.33 1616.90 466.71 1613.85 470.81 C 1609.21 476.88 1599.87 478.61 1593.37 474.60 C 1588.83 472.14 1586.35 467.46 1584.24 462.99 C 1583.83 462.91 1583.01 462.75 1582.61 462.67 C 1582.18 467.80 1582.43 472.97 1582.53 478.12 C 1584.55 477.23 1586.29 475.87 1587.99 474.47 C 1591.90 476.88 1596.27 478.91 1600.97 478.86 C 1607.44 479.14 1614.00 476.00 1617.58 470.55 C 1621.99 463.94 1621.26 454.10 1615.17 448.75 C 1608.32 442.70 1598.20 444.77 1590.57 440.45 C 1587.42 438.71 1586.31 434.35 1588.40 431.39 C 1593.57 422.98 1607.68 424.09 1612.34 432.51 C 1613.92 434.43 1613.96 438.13 1617.02 438.28 C 1616.96 433.46 1616.93 428.64 1616.70 423.82 C 1614.79 424.33 1613.58 425.88 1612.40 427.32 C 1604.76 422.45 1593.25 421.67 1586.78 428.85 M 1893.45 424.62 C 1882.26 428.12 1873.73 439.16 1873.73 450.98 C 1873.28 459.72 1878.14 467.90 1884.69 473.36 C 1891.75 479.32 1902.30 480.52 1910.65 476.65 C 1920.58 471.87 1927.81 461.15 1927.06 449.94 C 1926.77 440.51 1920.80 431.97 1912.99 427.04 C 1907.24 423.38 1899.92 422.69 1893.45 424.62 M 190.92 424.84 C 190.92 425.36 190.92 426.39 190.92 426.91 C 193.89 426.91 196.86 426.91 199.83 426.92 C 199.83 443.14 199.84 459.36 199.83 475.59 C 196.86 475.58 193.89 475.58 190.91 475.59 C 190.92 476.11 190.92 477.15 190.92 477.67 C 201.07 477.59 211.23 477.82 221.37 477.55 C 229.16 477.29 237.37 474.73 242.21 468.25 C 251.09 458.16 250.12 441.66 240.90 432.12 C 235.89 426.61 228.08 425.22 220.98 424.88 C 210.96 424.76 200.94 424.87 190.92 424.84 M 297.46 426.89 C 300.02 426.91 302.59 426.91 305.17 426.92 C 312.33 444.19 319.21 461.58 326.53 478.77 C 326.79 478.81 327.30 478.89 327.55 478.93 C 334.22 461.68 340.43 444.24 346.93 426.92 C 349.86 426.92 352.80 426.91 355.74 426.88 C 355.71 426.37 355.64 425.34 355.61 424.83 C 348.86 424.84 342.10 424.83 335.34 424.83 C 335.34 425.35 335.33 426.39 335.32 426.91 C 338.39 426.91 341.47 426.91 344.54 426.92 C 339.95 439.32 335.38 451.73 330.77 464.13 C 325.81 451.72 320.84 439.32 315.89 426.92 C 318.91 426.91 321.93 426.91 324.96 426.90 C 324.94 426.38 324.91 425.35 324.89 424.83 C 315.77 424.84 306.65 424.83 297.53 424.83 C 297.51 425.35 297.47 426.38 297.46 426.89 M 414.32 426.86 C 417.62 426.93 420.93 426.92 424.25 426.92 C 424.24 441.63 424.27 456.33 424.24 471.04 C 424.05 474.16 424.14 477.63 422.23 480.27 C 419.15 483.55 413.52 483.19 410.38 480.17 C 411.81 478.05 413.80 474.91 411.31 472.74 C 407.68 469.07 400.73 473.75 403.48 478.47 C 408.78 486.71 421.43 486.13 428.42 480.36 C 433.13 477.21 434.40 471.28 434.45 465.97 C 434.57 452.95 434.46 439.93 434.50 426.92 C 437.32 426.92 440.14 426.91 442.96 426.90 C 442.94 426.38 442.91 425.35 442.89 424.83 C 433.42 424.83 423.95 424.84 414.48 424.83 C 414.44 425.34 414.36 426.35 414.32 426.86 M 493.74 426.91 C 496.80 426.91 499.85 426.91 502.91 426.92 C 502.91 443.14 502.92 459.36 502.91 475.59 C 499.78 475.58 496.66 475.57 493.54 475.61 L 493.91 477.51 C 510.83 477.88 527.78 477.56 544.71 477.67 C 544.87 471.67 545.10 465.67 545.25 459.68 C 542.29 459.34 542.85 462.55 542.20 464.48 C 541.31 468.73 538.59 472.91 534.26 474.23 C 527.42 476.41 520.13 475.31 513.09 475.59 C 513.08 467.55 513.08 459.52 513.09 451.49 C 516.99 451.62 521.33 450.92 524.81 453.14 C 527.54 455.15 527.57 458.88 528.11 461.93 C 528.65 461.92 529.71 461.92 530.25 461.91 C 530.25 454.46 530.24 447.01 530.25 439.56 C 529.74 439.52 528.71 439.44 528.20 439.40 C 527.68 442.77 527.14 446.89 523.72 448.61 C 520.32 449.84 516.62 449.31 513.09 449.42 C 513.08 441.92 513.08 434.42 513.09 426.92 C 520.01 427.25 527.19 425.98 533.91 428.14 C 538.58 429.60 540.29 434.55 541.50 438.79 C 542.02 438.90 543.07 439.13 543.59 439.24 C 543.29 434.42 542.98 429.60 542.55 424.79 C 526.29 424.89 510.02 424.80 493.76 424.84 C 493.75 425.52 493.74 426.22 493.74 426.91 M 596.01 424.84 C 595.51 430.92 594.93 436.99 594.53 443.08 C 595.06 442.97 596.13 442.74 596.67 442.62 C 598.23 437.91 599.22 432.44 603.36 429.21 C 606.74 426.43 611.34 426.93 615.41 426.90 C 615.42 443.12 615.41 459.35 615.42 475.58 C 611.97 475.58 608.53 475.58 605.09 475.58 C 605.08 476.10 605.08 477.14 605.08 477.66 C 615.33 477.66 625.59 477.67 635.84 477.66 C 635.84 477.14 635.84 476.10 635.83 475.59 C 632.41 475.58 629.00 475.58 625.58 475.58 C 625.58 459.35 625.58 443.12 625.59 426.90 C 629.66 426.92 634.28 426.45 637.66 429.24 C 641.77 432.50 642.75 437.92 644.31 442.62 C 644.84 442.74 645.91 442.97 646.44 443.09 C 646.03 436.99 645.46 430.92 644.97 424.83 C 628.65 424.84 612.33 424.83 596.01 424.84 M 694.13 426.88 C 697.19 426.92 700.26 426.92 703.33 426.92 C 703.34 443.14 703.33 459.36 703.33 475.58 C 700.50 475.58 697.66 475.58 694.83 475.59 C 694.83 476.11 694.83 477.15 694.83 477.67 C 701.67 477.66 708.51 477.67 715.35 477.66 C 715.34 477.14 715.33 476.10 715.33 475.59 C 712.08 475.58 708.83 475.58 705.58 475.58 C 705.59 459.23 705.57 442.87 705.59 426.52 C 717.76 443.31 729.92 460.10 742.04 476.93 C 742.76 478.13 743.89 478.90 745.28 479.19 C 745.41 461.77 745.30 444.34 745.33 426.92 C 748.22 426.91 751.11 426.91 754.00 426.92 C 754.00 426.40 754.00 425.36 754.00 424.84 C 747.21 424.83 740.43 424.84 733.64 424.83 C 733.60 425.34 733.52 426.35 733.48 426.86 C 736.68 426.93 739.88 426.92 743.08 426.92 C 743.08 438.59 743.10 450.25 743.07 461.93 C 734.11 449.57 725.19 437.19 716.25 424.83 C 708.97 424.81 701.69 424.89 694.41 424.78 C 694.34 425.31 694.20 426.36 694.13 426.88 M 803.44 426.88 C 806.57 426.92 809.70 426.92 812.83 426.92 C 812.83 443.14 812.84 459.36 812.83 475.59 C 809.72 475.58 806.62 475.58 803.53 475.58 L 803.46 477.65 C 813.18 477.68 822.90 477.68 832.63 477.65 L 832.55 475.58 C 829.39 475.58 826.24 475.58 823.09 475.59 C 823.08 459.36 823.08 443.14 823.09 426.92 C 826.27 426.92 829.47 426.92 832.67 426.87 C 832.63 426.36 832.57 425.34 832.53 424.83 C 822.87 424.84 813.20 424.83 803.54 424.83 C 803.51 425.35 803.46 426.37 803.44 426.88 M 979.19 424.83 C 979.17 425.35 979.14 426.38 979.13 426.90 C 982.13 426.91 985.14 426.92 988.16 426.92 C 988.17 443.14 988.16 459.35 988.17 475.57 C 985.16 475.58 982.16 475.58 979.16 475.59 C 979.16 476.11 979.16 477.14 979.16 477.66 C 988.59 477.66 998.03 477.69 1007.46 477.64 L 1007.39 475.58 C 1004.39 475.58 1001.40 475.58 998.42 475.58 C 998.41 459.36 998.42 443.13 998.42 426.91 C 1000.99 426.91 1003.56 426.99 1006.15 426.89 C 1007.60 427.32 1007.41 425.64 1007.61 424.83 C 998.14 424.83 988.66 424.83 979.19 424.83 M 1013.31 426.86 C 1016.55 426.93 1019.80 426.92 1023.06 426.92 C 1015.14 434.49 1007.18 442.00 999.25 449.56 C 1006.96 458.22 1014.64 466.91 1022.33 475.58 C 1019.06 475.58 1015.79 475.58 1012.53 475.58 L 1012.46 477.64 C 1021.90 477.68 1031.34 477.67 1040.79 477.65 C 1040.77 477.13 1040.73 476.09 1040.72 475.57 C 1038.86 475.57 1037.04 475.58 1035.22 475.59 C 1025.95 465.34 1016.72 455.06 1007.47 444.79 C 1013.73 438.84 1020.06 432.94 1026.29 426.96 C 1029.25 426.91 1032.20 426.90 1035.17 426.91 C 1035.17 426.39 1035.16 425.36 1035.16 424.84 C 1027.93 424.83 1020.71 424.84 1013.48 424.83 C 1013.44 425.34 1013.35 426.35 1013.31 426.86 M 1255.38 426.85 C 1258.41 426.92 1261.45 426.93 1264.50 426.92 C 1264.50 443.14 1264.50 459.36 1264.50 475.58 C 1261.50 475.58 1258.51 475.58 1255.53 475.58 L 1255.46 477.65 C 1265.52 477.63 1275.58 477.78 1285.64 477.57 C 1293.63 477.35 1302.12 474.74 1307.02 468.02 C 1316.50 457.05 1314.34 438.68 1302.99 429.85 C 1297.87 426.03 1291.24 425.14 1285.04 424.86 C 1275.21 424.79 1265.39 424.86 1255.57 424.83 C 1255.52 425.33 1255.42 426.34 1255.38 426.85 M 1365.92 424.84 C 1365.92 425.36 1365.92 426.39 1365.91 426.91 C 1368.90 426.91 1371.91 426.91 1374.91 426.92 C 1374.91 443.14 1374.92 459.36 1374.91 475.59 C 1371.90 475.58 1368.90 475.58 1365.91 475.59 C 1365.92 476.11 1365.92 477.15 1365.92 477.67 C 1375.30 477.56 1384.70 477.86 1394.07 477.53 L 1394.47 475.61 C 1391.38 475.57 1388.31 475.58 1385.25 475.58 C 1385.25 467.25 1385.24 458.91 1385.26 450.58 C 1390.72 450.85 1397.86 449.43 1401.71 454.35 C 1406.29 460.13 1401.14 468.41 1406.03 474.06 C 1410.05 479.45 1417.74 478.59 1423.54 477.32 C 1423.65 476.81 1423.87 475.79 1423.98 475.28 C 1421.24 475.53 1417.18 476.43 1415.91 473.14 C 1414.61 468.38 1415.89 463.06 1413.46 458.57 C 1411.00 453.56 1405.29 451.82 1400.47 450.00 C 1395.78 447.49 1390.30 449.08 1385.25 448.67 C 1385.24 441.42 1385.24 434.17 1385.25 426.92 C 1390.47 427.09 1395.76 426.45 1400.93 427.44 C 1404.25 428.25 1406.01 431.77 1406.05 434.98 C 1406.16 438.63 1406.25 442.76 1403.90 445.81 C 1402.86 447.25 1399.70 447.42 1400.44 449.68 C 1405.40 448.43 1411.00 447.55 1414.72 443.67 C 1418.54 439.68 1417.87 432.75 1413.75 429.21 C 1409.35 424.86 1402.71 424.88 1396.96 424.82 C 1386.61 424.85 1376.26 424.83 1365.92 424.84 M 1473.75 426.91 C 1476.48 426.91 1479.24 426.91 1482.00 426.92 C 1482.03 438.30 1481.93 449.68 1482.04 461.06 C 1482.31 465.57 1482.23 470.85 1485.82 474.19 C 1490.05 478.34 1496.37 478.82 1501.98 478.86 C 1508.08 478.82 1514.78 477.77 1519.39 473.41 C 1523.00 469.99 1523.15 464.66 1523.26 460.02 C 1523.25 448.99 1523.25 437.95 1523.25 426.91 C 1526.31 426.93 1529.39 426.93 1532.48 426.83 C 1532.42 426.33 1532.31 425.33 1532.26 424.83 C 1525.42 424.83 1518.59 424.83 1511.76 424.84 C 1511.74 425.52 1511.73 426.22 1511.75 426.91 C 1514.85 426.91 1517.96 426.91 1521.08 426.92 C 1521.07 437.94 1521.11 448.97 1521.07 460.00 C 1520.87 464.25 1520.87 469.26 1517.43 472.33 C 1512.40 476.62 1504.96 477.37 1498.81 475.45 C 1494.12 473.79 1492.36 468.53 1492.37 463.97 C 1491.92 451.63 1492.28 439.27 1492.17 426.92 C 1495.18 426.91 1498.21 426.91 1501.25 426.92 C 1501.23 426.22 1501.23 425.52 1501.25 424.84 C 1492.08 424.83 1482.92 424.83 1473.76 424.84 C 1473.74 425.52 1473.73 426.22 1473.75 426.91 M 1669.14 443.09 C 1669.67 442.97 1670.73 442.73 1671.26 442.61 C 1672.87 437.88 1673.81 432.33 1678.06 429.13 C 1681.43 426.43 1685.95 426.93 1690.00 426.90 C 1690.00 443.13 1690.00 459.36 1689.99 475.59 C 1686.50 475.58 1683.01 475.56 1679.54 475.61 L 1679.91 477.51 C 1690.10 477.87 1700.33 477.58 1710.54 477.65 L 1710.48 475.58 C 1707.03 475.58 1703.59 475.58 1700.17 475.59 C 1700.16 459.36 1700.16 443.13 1700.17 426.90 C 1704.16 426.93 1708.63 426.43 1712.02 429.06 C 1716.33 432.25 1717.28 437.85 1718.92 442.61 C 1719.46 442.72 1720.53 442.95 1721.06 443.07 C 1720.59 436.98 1720.09 430.89 1719.53 424.81 C 1703.22 424.86 1686.91 424.82 1670.61 424.83 C 1670.11 430.92 1669.51 437.00 1669.14 443.09 M 1767.27 424.83 C 1767.26 425.35 1767.22 426.38 1767.21 426.90 C 1769.78 426.91 1772.37 426.91 1774.97 426.92 C 1782.16 444.24 1789.03 461.71 1796.42 478.94 C 1796.67 478.89 1797.17 478.80 1797.42 478.75 C 1804.06 461.56 1810.26 444.18 1816.73 426.91 C 1819.63 426.91 1822.55 426.91 1825.49 426.93 C 1825.49 426.41 1825.49 425.36 1825.49 424.83 C 1818.69 424.84 1811.90 424.83 1805.11 424.83 C 1805.09 425.35 1805.06 426.38 1805.04 426.90 C 1808.13 426.91 1811.23 426.92 1814.34 426.92 C 1809.75 439.32 1805.18 451.73 1800.57 464.13 C 1795.62 451.72 1790.62 439.34 1785.71 426.92 C 1788.74 426.92 1791.79 426.92 1794.85 426.88 C 1794.80 426.36 1794.70 425.33 1794.65 424.81 C 1785.52 424.86 1776.39 424.82 1767.27 424.83 Z" />
<path fill="#44251f" opacity="1.00" d=" M 886.22 102.21 C 891.12 97.42 899.30 97.45 904.84 101.11 C 909.98 104.29 912.76 110.23 913.36 116.09 C 914.09 123.51 913.19 131.55 908.76 137.77 C 905.21 142.77 899.80 145.93 894.58 148.90 C 889.49 138.39 882.52 128.09 882.04 116.06 C 881.69 111.18 882.53 105.74 886.22 102.21 Z" />
<path fill="#44251f" opacity="1.00" d=" M 1088.42 126.09 C 1098.95 125.42 1110.48 124.50 1120.02 129.90 C 1128.48 135.07 1130.04 145.97 1130.17 155.04 C 1130.53 165.27 1128.24 177.05 1119.31 183.28 C 1110.29 189.56 1098.65 188.18 1088.42 186.54 C 1088.41 166.39 1088.42 146.24 1088.42 126.09 Z" />
<path fill="#44251f" opacity="1.00" d=" M 847.53 191.34 C 850.67 181.59 858.33 173.83 867.26 169.10 C 884.21 198.15 901.13 227.22 918.06 256.28 C 911.81 262.25 903.85 267.13 895.04 267.67 C 885.72 267.80 877.66 261.92 871.29 255.67 C 860.69 244.82 852.92 231.28 848.37 216.83 C 845.84 208.63 844.70 199.62 847.53 191.34 Z" />
<path fill="#44251f" opacity="1.00" d=" M 1335.11 176.33 C 1341.09 175.80 1347.98 175.08 1353.07 178.99 C 1357.70 182.87 1357.99 189.53 1357.76 195.11 C 1357.53 199.56 1356.37 205.07 1351.68 206.81 C 1346.33 208.54 1340.59 207.60 1335.09 207.83 C 1335.09 197.33 1335.06 186.83 1335.11 176.33 Z" />
<path fill="#44251f" opacity="1.00" d=" M 1795.50 176.35 C 1801.38 175.79 1808.04 175.13 1813.15 178.72 C 1818.04 182.48 1818.43 189.29 1818.19 194.96 C 1818.00 199.49 1816.77 205.24 1811.89 206.89 C 1806.59 208.50 1800.94 207.61 1795.50 207.83 C 1795.50 197.34 1795.49 186.85 1795.50 176.35 Z" />
<path fill="#44251f" opacity="1.00" d=" M 1221.81 189.19 C 1225.83 198.12 1229.83 207.06 1233.83 216.00 C 1226.10 216.00 1218.38 216.01 1210.65 215.99 C 1214.37 207.06 1218.08 198.12 1221.81 189.19 Z" />
<path fill="#44251f" opacity="1.00" d=" M 261.34 216.00 C 265.06 207.06 268.77 198.12 272.51 189.19 C 276.51 198.13 280.53 207.06 284.53 216.00 C 276.80 216.00 269.07 216.00 261.34 216.00 Z" />
<path fill="#44251f" opacity="1.00" d=" M 480.60 189.19 C 484.62 198.12 488.62 207.06 492.63 216.00 C 484.90 216.00 477.17 216.00 469.44 216.00 C 473.16 207.06 476.87 198.13 480.60 189.19 Z" />
<path fill="#44251f" opacity="1.00" d=" M 701.52 189.19 C 705.54 198.12 709.54 207.06 713.56 216.00 C 705.82 216.00 698.09 216.00 690.36 216.00 C 694.07 207.06 697.80 198.12 701.52 189.19 Z" />
<path fill="#44251f" opacity="1.00" d=" M 108.37 426.55 C 113.75 424.92 120.44 425.31 124.62 429.47 C 128.45 433.62 128.31 439.69 128.63 444.98 C 128.62 452.97 128.98 461.17 126.84 468.94 C 124.67 476.02 115.81 477.69 109.44 476.34 C 103.67 475.35 100.40 469.46 99.95 464.05 C 99.07 455.05 99.01 445.91 100.19 436.94 C 100.63 432.26 103.61 427.70 108.37 426.55 Z" />
<path fill="#44251f" opacity="1.00" d=" M 1109.42 426.58 C 1114.37 425.03 1120.22 425.29 1124.55 428.38 C 1127.87 430.84 1129.00 435.10 1129.38 439.02 C 1130.11 446.79 1129.93 454.64 1129.25 462.42 C 1128.78 466.44 1128.15 471.05 1124.77 473.76 C 1120.26 476.91 1114.20 477.56 1109.02 475.89 C 1104.10 474.24 1101.57 468.94 1101.10 464.08 C 1100.21 455.35 1100.23 446.50 1101.20 437.78 C 1101.54 432.87 1104.36 427.82 1109.42 426.58 Z" />
<path fill="#44251f" opacity="1.00" d=" M 1894.42 426.66 C 1899.79 424.91 1906.47 425.24 1910.79 429.24 C 1914.59 433.08 1914.65 438.89 1914.98 443.94 C 1915.16 451.34 1915.16 458.81 1913.95 466.13 C 1913.38 470.03 1911.19 473.97 1907.28 475.29 C 1901.76 477.53 1894.29 477.69 1889.99 473.02 C 1885.87 468.36 1886.07 461.77 1885.78 455.95 C 1885.75 448.91 1885.49 441.77 1886.99 434.85 C 1887.77 431.01 1890.63 427.75 1894.42 426.66 Z" />
<path fill="#44251f" opacity="1.00" d=" M 210.09 426.92 C 215.82 427.01 221.66 426.47 227.28 427.88 C 232.39 429.13 235.35 434.29 236.38 439.11 C 237.76 446.34 237.38 453.80 236.55 461.07 C 235.84 466.50 233.22 472.61 227.59 474.41 C 221.90 476.01 215.92 475.49 210.08 475.58 C 210.08 459.36 210.08 443.14 210.09 426.92 Z" />
<path fill="#44251f" opacity="1.00" d=" M 1274.75 426.92 C 1281.43 427.19 1288.71 425.92 1294.87 429.14 C 1301.73 434.01 1301.97 443.39 1301.87 451.01 C 1301.56 458.59 1301.71 467.90 1295.04 473.00 C 1288.95 476.60 1281.49 475.29 1274.75 475.58 C 1274.75 459.36 1274.75 443.14 1274.75 426.92 Z" />
</g>
<g id="#ffffffff">
<path fill="#ffffff" opacity="1.00" d=" M 874.39 98.33 C 883.86 91.99 896.81 90.57 907.03 95.95 C 913.77 99.40 918.09 106.52 918.98 113.94 C 920.11 123.03 918.84 132.92 913.29 140.46 C 909.19 146.13 903.05 149.75 897.07 153.12 C 911.96 178.70 926.79 204.31 941.71 229.87 C 946.77 221.52 948.73 211.74 949.58 202.13 C 950.27 192.83 950.50 183.44 949.37 174.18 C 948.65 169.36 947.35 163.80 942.83 161.14 C 937.61 158.33 931.44 159.10 925.74 158.81 C 925.73 156.87 925.74 154.94 925.75 153.00 C 943.67 153.00 961.58 153.00 979.50 153.00 C 979.49 154.94 979.49 156.89 979.50 158.83 C 973.75 159.10 967.57 158.53 962.31 161.30 C 958.44 163.44 957.21 168.08 956.66 172.15 C 955.00 185.67 957.06 199.44 954.44 212.88 C 952.90 221.00 949.32 228.53 945.38 235.73 C 948.89 242.02 952.30 248.47 957.12 253.89 C 959.66 256.70 963.04 259.50 967.10 259.04 C 971.41 258.90 975.56 256.07 976.90 251.90 C 978.66 246.61 977.39 240.92 976.22 235.65 C 978.26 235.66 980.33 235.66 982.40 235.67 C 983.87 244.16 984.66 253.52 980.65 261.47 C 974.24 274.44 958.46 282.34 944.29 278.86 C 934.56 276.28 927.01 268.98 920.92 261.30 C 910.73 270.71 897.82 277.31 883.98 279.03 C 867.69 281.30 850.13 278.09 836.98 267.81 C 826.08 259.51 818.74 246.61 817.56 232.92 C 816.30 219.85 820.14 206.48 827.82 195.87 C 837.19 182.66 850.84 173.41 864.41 164.97 C 859.70 155.30 855.22 145.02 855.51 134.04 C 855.52 120.02 862.51 105.97 874.39 98.33 M 886.22 102.21 C 882.53 105.74 881.69 111.18 882.04 116.06 C 882.52 128.09 889.49 138.39 894.58 148.90 C 899.80 145.93 905.21 142.77 908.76 137.77 C 913.19 131.55 914.09 123.51 913.36 116.09 C 912.76 110.23 909.98 104.29 904.84 101.11 C 899.30 97.45 891.12 97.42 886.22 102.21 M 847.53 191.34 C 844.70 199.62 845.84 208.63 848.37 216.83 C 852.92 231.28 860.69 244.82 871.29 255.67 C 877.66 261.92 885.72 267.80 895.04 267.67 C 903.85 267.13 911.81 262.25 918.06 256.28 C 901.13 227.22 884.21 198.15 867.26 169.10 C 858.33 173.83 850.67 181.59 847.53 191.34 Z" />
<path fill="#ffffff" opacity="1.00" d=" M 1051.25 123.50 C 1067.48 123.42 1083.72 123.77 1099.95 123.06 C 1114.71 122.47 1130.84 125.47 1141.78 136.14 C 1150.73 144.62 1153.28 159.19 1147.12 169.98 C 1141.83 179.34 1131.83 184.92 1121.78 187.78 C 1110.95 190.92 1099.45 191.20 1088.41 189.13 C 1088.43 208.64 1088.41 228.15 1088.42 247.66 C 1094.91 247.67 1101.41 247.66 1107.92 247.67 C 1107.92 248.31 1107.92 249.60 1107.92 250.25 C 1089.03 250.25 1070.14 250.25 1051.25 250.25 C 1051.25 249.60 1051.25 248.31 1051.25 247.67 C 1057.75 247.67 1064.25 247.66 1070.75 247.67 C 1070.75 207.14 1070.75 166.61 1070.75 126.09 C 1064.25 126.08 1057.75 126.09 1051.25 126.08 C 1051.24 125.22 1051.24 124.36 1051.25 123.50 M 1088.42 126.09 C 1088.42 146.24 1088.41 166.39 1088.42 186.54 C 1098.65 188.18 1110.29 189.56 1119.31 183.28 C 1128.24 177.05 1130.53 165.27 1130.17 155.04 C 1130.04 145.97 1128.48 135.07 1120.02 129.90 C 1110.48 124.50 1098.95 125.42 1088.42 126.09 Z" />
<path fill="#ffffff" opacity="1.00" d=" M 69.33 123.50 C 82.53 123.50 95.73 123.50 108.93 123.50 C 119.80 155.51 130.66 187.53 141.57 219.53 C 152.52 187.54 163.33 155.50 174.24 123.50 C 187.21 123.50 200.19 123.50 213.17 123.50 C 213.17 124.15 213.16 125.44 213.16 126.08 C 206.66 126.09 200.16 126.08 193.67 126.09 C 193.66 166.61 193.67 207.14 193.66 247.66 C 200.16 247.67 206.66 247.66 213.16 247.67 C 213.16 248.31 213.16 249.60 213.16 250.25 C 194.28 250.25 175.39 250.25 156.50 250.25 C 156.50 249.39 156.50 248.52 156.50 247.67 C 163.00 247.67 169.50 247.66 176.00 247.67 C 175.96 207.33 176.08 166.98 175.94 126.64 C 162.26 166.48 148.77 206.38 135.12 246.23 C 134.69 247.60 134.34 248.99 134.06 250.41 C 133.55 250.41 133.04 250.37 132.54 250.34 L 133.45 249.68 C 119.30 209.16 105.69 168.46 91.55 127.94 C 91.43 167.85 91.54 207.76 91.50 247.66 C 98.00 247.67 104.50 247.66 111.00 247.67 C 111.00 248.31 111.00 249.60 111.00 250.25 C 97.11 250.25 83.22 250.25 69.34 250.25 C 69.34 249.60 69.34 248.31 69.33 247.67 C 75.83 247.66 82.33 247.66 88.83 247.67 C 88.84 207.14 88.83 166.61 88.84 126.09 C 82.34 126.08 75.84 126.09 69.34 126.08 C 69.34 125.44 69.33 124.15 69.33 123.50 Z" />
<path fill="#ffffff" opacity="1.00" d=" M 245.24 247.66 C 256.06 222.29 266.89 196.93 277.74 171.58 C 278.59 171.58 280.31 171.58 281.16 171.58 C 292.82 196.94 304.46 222.31 316.13 247.67 C 319.53 247.66 322.93 247.66 326.33 247.67 C 326.33 248.31 326.33 249.60 326.33 250.25 C 313.06 250.25 299.78 250.25 286.50 250.25 C 286.50 249.39 286.50 248.52 286.50 247.67 C 290.65 247.66 294.79 247.67 298.94 247.66 C 294.58 237.97 290.19 228.28 285.81 218.59 C 277.35 218.58 268.88 218.58 260.42 218.59 C 256.23 228.29 252.01 237.97 247.81 247.66 C 251.90 247.67 255.99 247.66 260.08 247.67 C 260.08 248.31 260.08 249.60 260.08 250.25 C 251.92 250.25 243.75 250.25 235.59 250.25 C 235.59 249.60 235.58 248.31 235.58 247.67 C 238.80 247.67 242.02 247.67 245.24 247.66 M 261.34 216.00 C 269.07 216.00 276.80 216.00 284.53 216.00 C 280.53 207.06 276.51 198.13 272.51 189.19 C 268.77 198.12 265.06 207.06 261.34 216.00 Z" />
<path fill="#ffffff" opacity="1.00" d=" M 453.34 247.66 C 464.15 222.29 475.00 196.94 485.83 171.58 C 486.69 171.58 488.40 171.58 489.26 171.58 C 500.92 196.95 512.56 222.31 524.23 247.67 C 527.62 247.66 531.02 247.66 534.42 247.67 C 534.42 248.31 534.42 249.60 534.42 250.25 C 521.14 250.25 507.86 250.25 494.58 250.25 C 494.58 249.60 494.58 248.31 494.59 247.67 C 498.73 247.66 502.89 247.66 507.04 247.67 C 502.67 237.97 498.29 228.27 493.89 218.58 C 485.44 218.59 476.99 218.59 468.54 218.58 C 464.32 228.27 460.11 237.97 455.92 247.67 C 460.00 247.66 464.08 247.66 468.16 247.67 C 468.16 248.31 468.16 249.60 468.16 250.25 C 460.00 250.25 451.83 250.25 443.67 250.25 C 443.67 249.60 443.67 248.31 443.67 247.67 C 446.89 247.67 450.11 247.67 453.34 247.66 M 480.60 189.19 C 476.87 198.13 473.16 207.06 469.44 216.00 C 477.17 216.00 484.90 216.00 492.63 216.00 C 488.62 207.06 484.62 198.12 480.60 189.19 Z" />
<path fill="#ffffff" opacity="1.00" d=" M 706.75 171.58 C 707.60 171.58 709.32 171.58 710.18 171.58 C 721.85 196.94 733.48 222.32 745.15 247.67 C 748.54 247.66 751.93 247.66 755.33 247.67 C 755.33 248.31 755.33 249.60 755.33 250.25 C 742.05 250.25 728.78 250.25 715.50 250.25 C 715.50 249.60 715.50 248.31 715.50 247.67 C 719.65 247.66 723.81 247.67 727.96 247.66 C 723.59 237.97 719.20 228.28 714.82 218.59 C 706.37 218.58 697.91 218.59 689.45 218.58 C 685.23 228.27 681.03 237.97 676.84 247.67 C 680.91 247.66 685.00 247.66 689.08 247.67 C 689.08 248.31 689.08 249.60 689.08 250.25 C 680.92 250.25 672.75 250.25 664.58 250.25 C 664.58 249.60 664.58 248.31 664.58 247.67 C 667.80 247.67 671.03 247.66 674.25 247.66 C 685.07 222.30 695.92 196.94 706.75 171.58 M 701.52 189.19 C 697.80 198.12 694.07 207.06 690.36 216.00 C 698.09 216.00 705.82 216.00 713.56 216.00 C 709.54 207.06 705.54 198.12 701.52 189.19 Z" />
<path fill="#ffffff" opacity="1.00" d=" M 1227.04 171.59 C 1227.89 171.58 1229.59 171.57 1230.44 171.57 C 1242.12 196.92 1253.76 222.29 1265.41 247.66 C 1268.82 247.67 1272.24 247.66 1275.66 247.67 C 1275.66 248.31 1275.66 249.60 1275.66 250.25 C 1262.39 250.25 1249.11 250.25 1235.84 250.25 C 1235.84 249.60 1235.84 248.31 1235.84 247.67 C 1239.97 247.66 1244.10 247.66 1248.25 247.67 C 1243.87 237.97 1239.49 228.27 1235.10 218.58 C 1226.64 218.58 1218.19 218.58 1209.74 218.58 C 1205.52 228.27 1201.32 237.97 1197.12 247.66 C 1201.19 247.66 1205.26 247.66 1209.33 247.67 C 1209.33 248.31 1209.33 249.60 1209.33 250.25 C 1201.16 250.25 1193.00 250.25 1184.84 250.25 C 1184.84 249.60 1184.84 248.31 1184.84 247.67 C 1188.06 247.66 1191.30 247.66 1194.54 247.66 C 1205.36 222.30 1216.20 196.95 1227.04 171.59 M 1221.81 189.19 C 1218.08 198.12 1214.37 207.06 1210.65 215.99 C 1218.38 216.01 1226.10 216.00 1233.83 216.00 C 1229.83 207.06 1225.83 198.12 1221.81 189.19 Z" />
<path fill="#ffffff" opacity="1.00" d=" M 1306.84 173.84 C 1319.91 174.06 1332.98 173.31 1346.05 173.36 C 1354.24 173.67 1363.05 174.99 1369.57 180.38 C 1376.72 186.17 1376.59 198.78 1369.07 204.20 C 1364.59 207.54 1358.94 208.52 1353.64 209.84 C 1360.41 211.44 1368.30 212.31 1373.06 218.01 C 1377.63 223.80 1376.74 231.62 1377.76 238.49 C 1378.37 242.00 1378.38 246.30 1381.36 248.76 C 1384.42 250.77 1387.76 248.45 1389.80 246.12 C 1390.51 246.64 1391.23 247.17 1391.97 247.70 C 1388.06 252.95 1380.91 253.12 1375.03 252.19 C 1370.48 251.55 1366.19 248.78 1364.26 244.54 C 1360.29 236.17 1362.15 226.46 1358.97 217.88 C 1357.62 213.97 1353.98 211.09 1349.88 210.65 C 1344.96 210.15 1340.01 210.52 1335.09 210.41 C 1335.08 222.83 1335.08 235.25 1335.09 247.67 C 1339.30 247.66 1343.52 247.67 1347.75 247.67 C 1347.75 248.31 1347.75 249.60 1347.75 250.25 C 1334.11 250.25 1320.47 250.25 1306.84 250.25 C 1306.84 249.60 1306.84 248.31 1306.84 247.67 C 1311.16 247.66 1315.49 247.66 1319.83 247.67 C 1319.83 223.92 1319.84 200.17 1319.83 176.41 C 1315.49 176.42 1311.16 176.42 1306.83 176.42 C 1306.83 175.77 1306.84 174.48 1306.84 173.84 M 1335.11 176.33 C 1335.06 186.83 1335.09 197.33 1335.09 207.83 C 1340.59 207.60 1346.33 208.54 1351.68 206.81 C 1356.37 205.07 1357.53 199.56 1357.76 195.11 C 1357.99 189.53 1357.70 182.87 1353.07 178.99 C 1347.98 175.08 1341.09 175.80 1335.11 176.33 Z" />
<path fill="#ffffff" opacity="1.00" d=" M 1767.25 173.83 C 1780.18 174.05 1793.09 173.34 1806.02 173.35 C 1814.29 173.61 1823.17 174.89 1829.81 180.22 C 1836.96 185.84 1837.10 198.22 1829.94 203.86 C 1825.40 207.48 1819.51 208.47 1814.05 209.85 C 1821.32 211.51 1830.14 212.54 1834.49 219.44 C 1839.26 227.80 1836.36 238.16 1840.16 246.85 C 1841.45 249.87 1845.81 250.36 1848.03 248.06 C 1849.35 246.63 1850.79 245.82 1852.50 247.44 C 1850.57 249.76 1848.15 251.88 1845.03 252.20 C 1838.26 253.26 1829.77 252.52 1825.69 246.26 C 1820.35 237.70 1822.84 226.97 1819.37 217.81 C 1818.03 214.03 1814.56 211.20 1810.59 210.69 C 1805.58 210.12 1800.52 210.53 1795.50 210.42 C 1795.50 222.83 1795.50 235.25 1795.50 247.66 C 1799.71 247.67 1803.93 247.66 1808.16 247.67 C 1808.16 248.31 1808.16 249.60 1808.16 250.25 C 1794.52 250.25 1780.89 250.25 1767.25 250.25 C 1767.25 249.60 1767.25 248.31 1767.25 247.67 C 1771.57 247.66 1775.91 247.67 1780.25 247.66 C 1780.25 223.91 1780.25 200.17 1780.25 176.42 C 1775.91 176.41 1771.57 176.42 1767.25 176.42 C 1767.25 175.77 1767.25 174.48 1767.25 173.83 M 1795.50 176.35 C 1795.49 186.85 1795.50 197.34 1795.50 207.83 C 1800.94 207.61 1806.59 208.50 1811.89 206.89 C 1816.77 205.24 1818.00 199.49 1818.19 194.96 C 1818.43 189.29 1818.04 182.48 1813.15 178.72 C 1808.04 175.13 1801.38 175.79 1795.50 176.35 Z" />
<path fill="#ffffff" opacity="1.00" d=" M 349.67 173.84 C 373.22 173.83 396.78 173.83 420.33 173.84 C 420.32 181.38 420.37 188.92 420.30 196.45 C 419.85 196.31 418.95 196.03 418.50 195.89 C 416.87 190.30 415.24 184.21 410.47 180.42 C 405.52 176.23 398.70 176.30 392.58 176.41 C 392.58 200.16 392.59 223.91 392.58 247.66 C 396.86 247.67 401.14 247.66 405.42 247.67 C 405.42 248.31 405.42 249.60 405.42 250.25 C 391.80 250.25 378.19 250.25 364.58 250.25 C 364.58 249.60 364.58 248.31 364.58 247.67 C 368.86 247.66 373.14 247.67 377.42 247.66 C 377.41 223.91 377.42 200.16 377.42 176.41 C 371.31 176.30 364.48 176.23 359.54 180.42 C 354.78 184.20 353.10 190.27 351.54 195.87 C 351.08 196.02 350.16 196.31 349.70 196.46 C 349.62 188.92 349.69 181.38 349.67 173.84 Z" />
<path fill="#ffffff" opacity="1.00" d=" M 558.25 173.84 C 567.41 173.83 576.57 173.84 585.73 173.83 C 599.13 191.35 612.45 208.94 625.90 226.43 C 625.93 209.75 625.91 193.08 625.91 176.41 C 621.94 176.42 617.97 176.42 614.00 176.42 C 614.00 175.77 614.00 174.48 614.00 173.84 C 622.92 173.83 631.83 173.83 640.75 173.83 C 640.75 174.48 640.75 175.77 640.75 176.42 C 636.66 176.41 632.58 176.41 628.50 176.42 C 628.48 201.11 628.53 225.79 628.47 250.48 C 626.85 250.40 625.33 249.95 624.51 248.47 C 607.40 226.31 590.29 204.14 573.11 182.04 C 573.06 203.92 573.09 225.79 573.09 247.67 C 577.08 247.66 581.08 247.66 585.08 247.67 C 585.08 248.31 585.08 249.60 585.08 250.25 C 576.14 250.25 567.19 250.25 558.25 250.25 C 558.25 249.60 558.25 248.31 558.25 247.67 C 562.36 247.67 566.47 247.66 570.58 247.67 C 570.58 223.92 570.59 200.17 570.58 176.42 C 566.47 176.42 562.36 176.41 558.25 176.42 C 558.25 175.77 558.25 174.48 558.25 173.84 Z" />
<path fill="#ffffff" opacity="1.00" d=" M 1423.50 173.84 C 1447.08 173.83 1470.66 173.83 1494.25 173.84 C 1494.23 181.37 1494.28 188.91 1494.22 196.45 C 1493.76 196.31 1492.83 196.02 1492.37 195.88 C 1490.73 190.13 1488.97 183.83 1483.93 180.09 C 1479.00 176.22 1472.44 176.32 1466.50 176.40 C 1466.49 200.16 1466.51 223.91 1466.50 247.66 C 1470.77 247.67 1475.05 247.66 1479.33 247.67 C 1479.33 248.31 1479.33 249.60 1479.33 250.25 C 1465.69 250.25 1452.05 250.25 1438.42 250.25 C 1438.42 249.60 1438.42 248.31 1438.42 247.67 C 1442.69 247.66 1446.97 247.67 1451.25 247.66 C 1451.25 223.91 1451.25 200.16 1451.25 176.41 C 1445.16 176.29 1438.38 176.25 1433.44 180.39 C 1428.61 184.18 1427.02 190.36 1425.35 195.96 L 1423.54 196.42 C 1423.45 188.89 1423.51 181.36 1423.50 173.84 Z" />
<path fill="#ffffff" opacity="1.00" d=" M 1531.92 173.84 C 1541.07 173.83 1550.23 173.85 1559.39 173.82 C 1572.81 191.32 1586.11 208.93 1599.57 226.40 C 1599.60 209.74 1599.57 193.08 1599.58 176.42 C 1595.60 176.42 1591.63 176.42 1587.67 176.41 C 1587.67 175.77 1587.67 174.48 1587.67 173.84 C 1596.61 173.83 1605.55 173.84 1614.50 173.83 C 1614.48 174.69 1614.48 175.55 1614.50 176.42 C 1610.38 176.42 1606.27 176.42 1602.17 176.41 C 1602.15 201.10 1602.19 225.78 1602.15 250.47 C 1599.08 250.75 1597.80 247.79 1596.16 245.83 C 1579.72 224.55 1563.29 203.27 1546.79 182.03 C 1546.69 203.91 1546.78 225.78 1546.75 247.66 C 1550.74 247.67 1554.74 247.67 1558.75 247.67 C 1558.75 248.31 1558.75 249.60 1558.75 250.25 C 1549.80 250.25 1540.86 250.25 1531.92 250.25 C 1531.92 249.60 1531.92 248.31 1531.92 247.67 C 1536.02 247.67 1540.13 247.66 1544.25 247.67 C 1544.25 223.92 1544.24 200.17 1544.25 176.42 C 1540.13 176.41 1536.02 176.41 1531.92 176.42 C 1531.92 175.77 1531.92 174.48 1531.92 173.84 Z" />
<path fill="#ffffff" opacity="1.00" d=" M 1652.67 173.84 C 1675.67 173.83 1698.66 173.83 1721.67 173.84 C 1721.66 179.98 1721.67 186.12 1721.66 192.26 C 1721.16 192.26 1720.16 192.25 1719.66 192.24 C 1717.96 187.69 1716.19 182.87 1712.41 179.62 C 1709.86 177.35 1706.43 176.40 1703.09 176.43 C 1695.61 176.38 1688.14 176.43 1680.67 176.42 C 1680.66 186.89 1680.66 197.36 1680.67 207.83 C 1686.27 207.62 1692.56 208.86 1697.48 205.43 C 1701.99 202.46 1703.64 196.94 1704.13 191.83 C 1704.60 191.83 1705.53 191.83 1706.00 191.83 C 1705.95 203.31 1706.09 214.79 1705.92 226.27 C 1705.48 226.11 1704.60 225.81 1704.16 225.65 C 1703.20 221.22 1702.54 216.12 1698.63 213.20 C 1693.46 209.38 1686.66 210.62 1680.66 210.43 C 1680.66 222.84 1680.67 235.25 1680.66 247.66 C 1691.44 246.98 1703.25 249.80 1713.11 244.15 C 1720.07 240.17 1722.88 232.19 1724.70 224.86 L 1726.52 224.28 C 1726.65 232.94 1726.55 241.59 1726.58 250.25 C 1701.94 250.25 1677.30 250.25 1652.67 250.25 C 1652.67 249.60 1652.67 248.31 1652.67 247.67 C 1656.94 247.66 1661.22 247.67 1665.50 247.66 C 1665.49 223.91 1665.50 200.17 1665.50 176.42 C 1661.21 176.41 1656.94 176.42 1652.67 176.41 C 1652.67 175.77 1652.67 174.48 1652.67 173.84 Z" />
<path fill="#ffffff" opacity="1.00" d=" M 1885.84 173.84 C 1899.33 173.83 1912.83 173.83 1926.33 173.84 C 1926.33 174.48 1926.33 175.77 1926.33 176.41 C 1922.13 176.42 1917.94 176.41 1913.75 176.42 C 1913.75 200.16 1913.75 223.91 1913.75 247.65 C 1917.93 247.67 1922.13 247.67 1926.33 247.67 C 1926.33 248.31 1926.33 249.60 1926.33 250.25 C 1912.83 250.25 1899.33 250.25 1885.84 250.25 C 1885.84 249.60 1885.84 248.31 1885.84 247.67 C 1890.05 247.66 1894.27 247.67 1898.50 247.66 C 1898.49 223.91 1898.50 200.17 1898.50 176.42 C 1894.27 176.41 1890.05 176.42 1885.83 176.42 C 1885.83 175.77 1885.84 174.48 1885.84 173.84 Z" />
<path fill="#ffffff" opacity="1.00" d=" M 895.56 406.10 C 900.46 406.48 903.31 411.21 907.22 413.66 C 910.27 411.21 913.33 408.78 916.39 406.35 C 917.03 406.34 918.30 406.32 918.93 406.31 C 915.61 410.79 912.26 415.24 908.91 419.69 C 907.78 419.67 906.67 419.65 905.58 419.65 C 902.26 415.11 898.74 410.73 895.56 406.10 Z" />
<path fill="#ffffff" opacity="1.00" d=" M 1589.32 406.15 C 1594.21 406.50 1597.13 411.22 1601.02 413.68 C 1604.12 411.22 1607.20 408.74 1610.32 406.30 C 1610.92 406.31 1612.13 406.34 1612.73 406.35 C 1609.40 410.79 1606.07 415.23 1602.76 419.68 C 1601.61 419.67 1600.48 419.66 1599.37 419.66 C 1596.03 415.15 1592.57 410.73 1589.32 406.15 Z" />
<path fill="#ffffff" opacity="1.00" d=" M 107.36 424.54 C 113.85 422.67 121.15 423.48 126.85 427.19 C 134.52 432.17 140.43 440.60 140.66 449.95 C 141.64 464.59 128.85 479.00 114.00 478.86 C 98.46 479.21 85.32 463.26 87.54 448.11 C 88.73 437.28 96.98 427.66 107.36 424.54 M 108.37 426.55 C 103.61 427.70 100.63 432.26 100.19 436.94 C 99.01 445.91 99.07 455.05 99.95 464.05 C 100.40 469.46 103.67 475.35 109.44 476.34 C 115.81 477.69 124.67 476.02 126.84 468.94 C 128.98 461.17 128.62 452.97 128.63 444.98 C 128.31 439.69 128.45 433.62 124.62 429.47 C 120.44 425.31 113.75 424.92 108.37 426.55 Z" />
<path fill="#ffffff" opacity="1.00" d=" M 885.52 439.60 C 889.21 431.05 897.39 423.71 907.07 423.57 C 912.10 423.29 916.92 425.31 920.85 428.35 C 922.13 426.83 922.62 423.81 925.16 424.07 C 925.15 429.45 925.18 434.82 925.14 440.20 C 924.72 440.08 923.87 439.83 923.45 439.70 C 922.27 436.84 921.61 433.71 919.68 431.22 C 915.83 425.78 907.87 424.24 901.96 426.93 C 897.93 428.84 896.43 433.43 895.84 437.53 C 894.69 445.65 894.85 453.90 895.37 462.07 C 895.72 466.32 896.38 471.16 899.88 474.05 C 905.14 478.24 913.15 477.34 918.02 472.95 C 921.53 470.18 923.00 465.86 924.88 462.00 L 926.74 461.47 C 926.60 467.11 926.33 472.74 926.04 478.37 C 923.74 477.77 922.85 475.37 921.43 473.73 C 917.20 476.65 912.32 479.08 907.05 478.86 C 899.27 478.89 892.45 473.84 888.09 467.74 C 882.41 459.65 881.87 448.63 885.52 439.60 Z" />
<path fill="#ffffff" opacity="1.00" d=" M 1108.35 424.58 C 1114.84 422.68 1122.17 423.43 1127.91 427.13 C 1135.65 432.10 1141.55 440.60 1141.82 450.00 C 1142.53 460.86 1135.73 471.21 1126.31 476.21 C 1117.85 480.58 1106.82 479.54 1099.50 473.40 C 1092.93 467.95 1088.07 459.76 1088.48 451.01 C 1088.48 439.13 1097.08 428.02 1108.35 424.58 M 1109.42 426.58 C 1104.36 427.82 1101.54 432.87 1101.20 437.78 C 1100.23 446.50 1100.21 455.35 1101.10 464.08 C 1101.57 468.94 1104.10 474.24 1109.02 475.89 C 1114.20 477.56 1120.26 476.91 1124.77 473.76 C 1128.15 471.05 1128.78 466.44 1129.25 462.42 C 1129.93 454.64 1130.11 446.79 1129.38 439.02 C 1129.00 435.10 1127.87 430.84 1124.55 428.38 C 1120.22 425.29 1114.37 425.03 1109.42 426.58 Z" />
<path fill="#ffffff" opacity="1.00" d=" M 1586.78 428.85 C 1593.25 421.67 1604.76 422.45 1612.40 427.32 C 1613.58 425.88 1614.79 424.33 1616.70 423.82 C 1616.93 428.64 1616.96 433.46 1617.02 438.28 C 1613.96 438.13 1613.92 434.43 1612.34 432.51 C 1607.68 424.09 1593.57 422.98 1588.40 431.39 C 1586.31 434.35 1587.42 438.71 1590.57 440.45 C 1598.20 444.77 1608.32 442.70 1615.17 448.75 C 1621.26 454.10 1621.99 463.94 1617.58 470.55 C 1614.00 476.00 1607.44 479.14 1600.97 478.86 C 1596.27 478.91 1591.90 476.88 1587.99 474.47 C 1586.29 475.87 1584.55 477.23 1582.53 478.12 C 1582.43 472.97 1582.18 467.80 1582.61 462.67 C 1583.01 462.75 1583.83 462.91 1584.24 462.99 C 1586.35 467.46 1588.83 472.14 1593.37 474.60 C 1599.87 478.61 1609.21 476.88 1613.85 470.81 C 1616.90 466.71 1615.72 460.33 1611.43 457.58 C 1604.06 452.73 1593.69 455.29 1587.07 448.92 C 1581.29 443.82 1581.41 434.20 1586.78 428.85 Z" />
<path fill="#ffffff" opacity="1.00" d=" M 1893.45 424.62 C 1899.92 422.69 1907.24 423.38 1912.99 427.04 C 1920.80 431.97 1926.77 440.51 1927.06 449.94 C 1927.81 461.15 1920.58 471.87 1910.65 476.65 C 1902.30 480.52 1891.75 479.32 1884.69 473.36 C 1878.14 467.90 1873.28 459.72 1873.73 450.98 C 1873.73 439.16 1882.26 428.12 1893.45 424.62 M 1894.42 426.66 C 1890.63 427.75 1887.77 431.01 1886.99 434.85 C 1885.49 441.77 1885.75 448.91 1885.78 455.95 C 1886.07 461.77 1885.87 468.36 1889.99 473.02 C 1894.29 477.69 1901.76 477.53 1907.28 475.29 C 1911.19 473.97 1913.38 470.03 1913.95 466.13 C 1915.16 458.81 1915.16 451.34 1914.98 443.94 C 1914.65 438.89 1914.59 433.08 1910.79 429.24 C 1906.47 425.24 1899.79 424.91 1894.42 426.66 Z" />
<path fill="#ffffff" opacity="1.00" d=" M 190.92 424.84 C 200.94 424.87 210.96 424.76 220.98 424.88 C 228.08 425.22 235.89 426.61 240.90 432.12 C 250.12 441.66 251.09 458.16 242.21 468.25 C 237.37 474.73 229.16 477.29 221.37 477.55 C 211.23 477.82 201.07 477.59 190.92 477.67 C 190.92 477.15 190.92 476.11 190.91 475.59 C 193.89 475.58 196.86 475.58 199.83 475.59 C 199.84 459.36 199.83 443.14 199.83 426.92 C 196.86 426.91 193.89 426.91 190.92 426.91 C 190.92 426.39 190.92 425.36 190.92 424.84 M 210.09 426.92 C 210.08 443.14 210.08 459.36 210.08 475.58 C 215.92 475.49 221.90 476.01 227.59 474.41 C 233.22 472.61 235.84 466.50 236.55 461.07 C 237.38 453.80 237.76 446.34 236.38 439.11 C 235.35 434.29 232.39 429.13 227.28 427.88 C 221.66 426.47 215.82 427.01 210.09 426.92 Z" />
<path fill="#ffffff" opacity="1.00" d=" M 297.46 426.89 C 297.47 426.38 297.51 425.35 297.53 424.83 C 306.65 424.83 315.77 424.84 324.89 424.83 C 324.91 425.35 324.94 426.38 324.96 426.90 C 321.93 426.91 318.91 426.91 315.89 426.92 C 320.84 439.32 325.81 451.72 330.77 464.13 C 335.38 451.73 339.95 439.32 344.54 426.92 C 341.47 426.91 338.39 426.91 335.32 426.91 C 335.33 426.39 335.34 425.35 335.34 424.83 C 342.10 424.83 348.86 424.84 355.61 424.83 C 355.64 425.34 355.71 426.37 355.74 426.88 C 352.80 426.91 349.86 426.92 346.93 426.92 C 340.43 444.24 334.22 461.68 327.55 478.93 C 327.30 478.89 326.79 478.81 326.53 478.77 C 319.21 461.58 312.33 444.19 305.17 426.92 C 302.59 426.91 300.02 426.91 297.46 426.89 Z" />
<path fill="#ffffff" opacity="1.00" d=" M 414.32 426.86 C 414.36 426.35 414.44 425.34 414.48 424.83 C 423.95 424.84 433.42 424.83 442.89 424.83 C 442.91 425.35 442.94 426.38 442.96 426.90 C 440.14 426.91 437.32 426.92 434.50 426.92 C 434.46 439.93 434.57 452.95 434.45 465.97 C 434.40 471.28 433.13 477.21 428.42 480.36 C 421.43 486.13 408.78 486.71 403.48 478.47 C 400.73 473.75 407.68 469.07 411.31 472.74 C 413.80 474.91 411.81 478.05 410.38 480.17 C 413.52 483.19 419.15 483.55 422.23 480.27 C 424.14 477.63 424.05 474.16 424.24 471.04 C 424.27 456.33 424.24 441.63 424.25 426.92 C 420.93 426.92 417.62 426.93 414.32 426.86 Z" />
<path fill="#ffffff" opacity="1.00" d=" M 493.74 426.91 C 493.74 426.22 493.75 425.52 493.76 424.84 C 510.02 424.80 526.29 424.89 542.55 424.79 C 542.98 429.60 543.29 434.42 543.59 439.24 C 543.07 439.13 542.02 438.90 541.50 438.79 C 540.29 434.55 538.58 429.60 533.91 428.14 C 527.19 425.98 520.01 427.25 513.09 426.92 C 513.08 434.42 513.08 441.92 513.09 449.42 C 516.62 449.31 520.32 449.84 523.72 448.61 C 527.14 446.89 527.68 442.77 528.20 439.40 C 528.71 439.44 529.74 439.52 530.25 439.56 C 530.24 447.01 530.25 454.46 530.25 461.91 C 529.71 461.92 528.65 461.92 528.11 461.93 C 527.57 458.88 527.54 455.15 524.81 453.14 C 521.33 450.92 516.99 451.62 513.09 451.49 C 513.08 459.52 513.08 467.55 513.09 475.59 C 520.13 475.31 527.42 476.41 534.26 474.23 C 538.59 472.91 541.31 468.73 542.20 464.48 C 542.85 462.55 542.29 459.34 545.25 459.68 C 545.10 465.67 544.87 471.67 544.71 477.67 C 527.78 477.56 510.83 477.88 493.91 477.51 L 493.54 475.61 C 496.66 475.57 499.78 475.58 502.91 475.59 C 502.92 459.36 502.91 443.14 502.91 426.92 C 499.85 426.91 496.80 426.91 493.74 426.91 Z" />
<path fill="#ffffff" opacity="1.00" d=" M 596.01 424.84 C 612.33 424.83 628.65 424.84 644.97 424.83 C 645.46 430.92 646.03 436.99 646.44 443.09 C 645.91 442.97 644.84 442.74 644.31 442.62 C 642.75 437.92 641.77 432.50 637.66 429.24 C 634.28 426.45 629.66 426.92 625.59 426.90 C 625.58 443.12 625.58 459.35 625.58 475.58 C 629.00 475.58 632.41 475.58 635.83 475.59 C 635.84 476.10 635.84 477.14 635.84 477.66 C 625.59 477.67 615.33 477.66 605.08 477.66 C 605.08 477.14 605.08 476.10 605.09 475.58 C 608.53 475.58 611.97 475.58 615.42 475.58 C 615.41 459.35 615.42 443.12 615.41 426.90 C 611.34 426.93 606.74 426.43 603.36 429.21 C 599.22 432.44 598.23 437.91 596.67 442.62 C 596.13 442.74 595.06 442.97 594.53 443.08 C 594.93 436.99 595.51 430.92 596.01 424.84 Z" />
<path fill="#ffffff" opacity="1.00" d=" M 694.13 426.88 C 694.20 426.36 694.34 425.31 694.41 424.78 C 701.69 424.89 708.97 424.81 716.25 424.83 C 725.19 437.19 734.11 449.57 743.07 461.93 C 743.10 450.25 743.08 438.59 743.08 426.92 C 739.88 426.92 736.68 426.93 733.48 426.86 C 733.52 426.35 733.60 425.34 733.64 424.83 C 740.43 424.84 747.21 424.83 754.00 424.84 C 754.00 425.36 754.00 426.40 754.00 426.92 C 751.11 426.91 748.22 426.91 745.33 426.92 C 745.30 444.34 745.41 461.77 745.28 479.19 C 743.89 478.90 742.76 478.13 742.04 476.93 C 729.92 460.10 717.76 443.31 705.59 426.52 C 705.57 442.87 705.59 459.23 705.58 475.58 C 708.83 475.58 712.08 475.58 715.33 475.59 C 715.33 476.10 715.34 477.14 715.35 477.66 C 708.51 477.67 701.67 477.66 694.83 477.67 C 694.83 477.15 694.83 476.11 694.83 475.59 C 697.66 475.58 700.50 475.58 703.33 475.58 C 703.33 459.36 703.34 443.14 703.33 426.92 C 700.26 426.92 697.19 426.92 694.13 426.88 Z" />
<path fill="#ffffff" opacity="1.00" d=" M 803.44 426.88 C 803.46 426.37 803.51 425.35 803.54 424.83 C 813.20 424.83 822.87 424.84 832.53 424.83 C 832.57 425.34 832.63 426.36 832.67 426.87 C 829.47 426.92 826.27 426.92 823.09 426.92 C 823.08 443.14 823.08 459.36 823.09 475.59 C 826.24 475.58 829.39 475.58 832.55 475.58 L 832.63 477.65 C 822.90 477.68 813.18 477.68 803.46 477.65 L 803.53 475.58 C 806.62 475.58 809.72 475.58 812.83 475.59 C 812.84 459.36 812.83 443.14 812.83 426.92 C 809.70 426.92 806.57 426.92 803.44 426.88 Z" />
<path fill="#ffffff" opacity="1.00" d=" M 979.19 424.83 C 988.66 424.83 998.14 424.83 1007.61 424.83 C 1007.41 425.64 1007.60 427.32 1006.15 426.89 C 1003.56 426.99 1000.99 426.91 998.42 426.91 C 998.42 443.13 998.41 459.36 998.42 475.58 C 1001.40 475.58 1004.39 475.58 1007.39 475.58 L 1007.46 477.64 C 998.03 477.69 988.59 477.66 979.16 477.66 C 979.16 477.14 979.16 476.11 979.16 475.59 C 982.16 475.58 985.16 475.58 988.17 475.57 C 988.16 459.35 988.17 443.14 988.16 426.92 C 985.14 426.92 982.13 426.91 979.13 426.90 C 979.14 426.38 979.17 425.35 979.19 424.83 Z" />
<path fill="#ffffff" opacity="1.00" d=" M 1013.31 426.86 C 1013.35 426.35 1013.44 425.34 1013.48 424.83 C 1020.71 424.84 1027.93 424.83 1035.16 424.84 C 1035.16 425.36 1035.17 426.39 1035.17 426.91 C 1032.20 426.90 1029.25 426.91 1026.29 426.96 C 1020.06 432.94 1013.73 438.84 1007.47 444.79 C 1016.72 455.06 1025.95 465.34 1035.22 475.59 C 1037.04 475.58 1038.86 475.57 1040.72 475.57 C 1040.73 476.09 1040.77 477.13 1040.79 477.65 C 1031.34 477.67 1021.90 477.68 1012.46 477.64 L 1012.53 475.58 C 1015.79 475.58 1019.06 475.58 1022.33 475.58 C 1014.64 466.91 1006.96 458.22 999.25 449.56 C 1007.18 442.00 1015.14 434.49 1023.06 426.92 C 1019.80 426.92 1016.55 426.93 1013.31 426.86 Z" />
<path fill="#ffffff" opacity="1.00" d=" M 1255.38 426.85 C 1255.42 426.34 1255.52 425.33 1255.57 424.83 C 1265.39 424.86 1275.21 424.79 1285.04 424.86 C 1291.24 425.14 1297.87 426.03 1302.99 429.85 C 1314.34 438.68 1316.50 457.05 1307.02 468.02 C 1302.12 474.74 1293.63 477.35 1285.64 477.57 C 1275.58 477.78 1265.52 477.63 1255.46 477.65 L 1255.53 475.58 C 1258.51 475.58 1261.50 475.58 1264.50 475.58 C 1264.50 459.36 1264.50 443.14 1264.50 426.92 C 1261.45 426.93 1258.41 426.92 1255.38 426.85 M 1274.75 426.92 C 1274.75 443.14 1274.75 459.36 1274.75 475.58 C 1281.49 475.29 1288.95 476.60 1295.04 473.00 C 1301.71 467.90 1301.56 458.59 1301.87 451.01 C 1301.97 443.39 1301.73 434.01 1294.87 429.14 C 1288.71 425.92 1281.43 427.19 1274.75 426.92 Z" />
<path fill="#ffffff" opacity="1.00" d=" M 1365.92 424.84 C 1376.26 424.83 1386.61 424.85 1396.96 424.82 C 1402.71 424.88 1409.35 424.86 1413.75 429.21 C 1417.87 432.75 1418.54 439.68 1414.72 443.67 C 1411.00 447.55 1405.40 448.43 1400.44 449.68 C 1399.70 447.42 1402.86 447.25 1403.90 445.81 C 1406.25 442.76 1406.16 438.63 1406.05 434.98 C 1406.01 431.77 1404.25 428.25 1400.93 427.44 C 1395.76 426.45 1390.47 427.09 1385.25 426.92 C 1385.24 434.17 1385.24 441.42 1385.25 448.67 C 1390.30 449.08 1395.78 447.49 1400.47 450.00 C 1405.29 451.82 1411.00 453.56 1413.46 458.57 C 1415.89 463.06 1414.61 468.38 1415.91 473.14 C 1417.18 476.43 1421.24 475.53 1423.98 475.28 C 1423.87 475.79 1423.65 476.81 1423.54 477.32 C 1417.74 478.59 1410.05 479.45 1406.03 474.06 C 1401.14 468.41 1406.29 460.13 1401.71 454.35 C 1397.86 449.43 1390.72 450.85 1385.26 450.58 C 1385.24 458.91 1385.25 467.25 1385.25 475.58 C 1388.31 475.58 1391.38 475.57 1394.47 475.61 L 1394.07 477.53 C 1384.70 477.86 1375.30 477.56 1365.92 477.67 C 1365.92 477.15 1365.92 476.11 1365.91 475.59 C 1368.90 475.58 1371.90 475.58 1374.91 475.59 C 1374.92 459.36 1374.91 443.14 1374.91 426.92 C 1371.91 426.91 1368.90 426.91 1365.91 426.91 C 1365.92 426.39 1365.92 425.36 1365.92 424.84 Z" />
<path fill="#ffffff" opacity="1.00" d=" M 1473.75 426.91 C 1473.73 426.22 1473.74 425.52 1473.76 424.84 C 1482.92 424.83 1492.08 424.83 1501.25 424.84 C 1501.23 425.52 1501.23 426.22 1501.25 426.92 C 1498.21 426.91 1495.18 426.91 1492.17 426.92 C 1492.28 439.27 1491.92 451.63 1492.37 463.97 C 1492.36 468.53 1494.12 473.79 1498.81 475.45 C 1504.96 477.37 1512.40 476.62 1517.43 472.33 C 1520.87 469.26 1520.87 464.25 1521.07 460.00 C 1521.11 448.97 1521.07 437.94 1521.08 426.92 C 1517.96 426.91 1514.85 426.91 1511.75 426.91 C 1511.73 426.22 1511.74 425.52 1511.76 424.84 C 1518.59 424.83 1525.42 424.83 1532.26 424.83 C 1532.31 425.33 1532.42 426.33 1532.48 426.83 C 1529.39 426.93 1526.31 426.93 1523.25 426.91 C 1523.25 437.95 1523.25 448.99 1523.26 460.02 C 1523.15 464.66 1523.00 469.99 1519.39 473.41 C 1514.78 477.77 1508.08 478.82 1501.98 478.86 C 1496.37 478.82 1490.05 478.34 1485.82 474.19 C 1482.23 470.85 1482.31 465.57 1482.04 461.06 C 1481.93 449.68 1482.03 438.30 1482.00 426.92 C 1479.24 426.91 1476.48 426.91 1473.75 426.91 Z" />
<path fill="#ffffff" opacity="1.00" d=" M 1669.14 443.09 C 1669.51 437.00 1670.11 430.92 1670.61 424.83 C 1686.91 424.82 1703.22 424.86 1719.53 424.81 C 1720.09 430.89 1720.59 436.98 1721.06 443.07 C 1720.53 442.95 1719.46 442.72 1718.92 442.61 C 1717.28 437.85 1716.33 432.25 1712.02 429.06 C 1708.63 426.43 1704.16 426.93 1700.17 426.90 C 1700.16 443.13 1700.16 459.36 1700.17 475.59 C 1703.59 475.58 1707.03 475.58 1710.48 475.58 L 1710.54 477.65 C 1700.33 477.58 1690.10 477.87 1679.91 477.51 L 1679.54 475.61 C 1683.01 475.56 1686.50 475.58 1689.99 475.59 C 1690.00 459.36 1690.00 443.13 1690.00 426.90 C 1685.95 426.93 1681.43 426.43 1678.06 429.13 C 1673.81 432.33 1672.87 437.88 1671.26 442.61 C 1670.73 442.73 1669.67 442.97 1669.14 443.09 Z" />
<path fill="#ffffff" opacity="1.00" d=" M 1767.27 424.83 C 1776.39 424.82 1785.52 424.86 1794.65 424.81 C 1794.70 425.33 1794.80 426.36 1794.85 426.88 C 1791.79 426.92 1788.74 426.92 1785.71 426.92 C 1790.62 439.34 1795.62 451.72 1800.57 464.13 C 1805.18 451.73 1809.75 439.32 1814.34 426.92 C 1811.23 426.92 1808.13 426.91 1805.04 426.90 C 1805.06 426.38 1805.09 425.35 1805.11 424.83 C 1811.90 424.83 1818.69 424.84 1825.49 424.83 C 1825.49 425.36 1825.49 426.41 1825.49 426.93 C 1822.55 426.91 1819.63 426.91 1816.73 426.91 C 1810.26 444.18 1804.06 461.56 1797.42 478.75 C 1797.17 478.80 1796.67 478.89 1796.42 478.94 C 1789.03 461.71 1782.16 444.24 1774.97 426.92 C 1772.37 426.91 1769.78 426.91 1767.21 426.90 C 1767.22 426.38 1767.26 425.35 1767.27 424.83 Z" />
</g>
</svg>
